<svg xmlns="http://www.w3.org/2000/svg" fill="#777" viewBox="0 0 600 600"><path d="M438.723 65.146a154.303 154.303 0 0 0-34.417 3.362c-12.005 2.561-19.608 14.406-17.047 26.33 2.56 12.005 14.325 19.608 26.33 17.047 36.893-7.843 76.829 3.601 103.879 33.612 27.05 30.011 34.412 70.905 22.808 106.758-3.761 11.685 2.64 24.17 14.324 27.931 11.684 3.761 24.17-2.64 27.93-14.244v-.082c16.327-50.338 6.003-107.88-32.09-150.055-29.762-33.012-70.563-50.05-111.717-50.659zm-187.53 66.296c-40.883.615-101.103 32.824-154.761 86.482C41.772 272.584 10 330.605 10 380.784 10 476.659 133.005 535 253.29 535c157.737 0 262.657-91.634 262.657-164.38.08-44.017-36.974-68.986-70.267-79.31-8.163-2.48-13.765-4.081-9.523-14.805 9.283-23.289 10.244-43.375.16-57.78-18.806-26.89-70.346-25.45-129.408-.721 0 0-18.566 8.082-13.764-6.564 9.043-29.21 7.682-53.619-6.403-67.784-8.503-8.524-20.761-12.436-35.549-12.214zm186.338 12.545a74.604 74.604 0 0 0-16.74 1.67c-10.323 2.16-16.886 12.405-14.725 22.729 2.24 10.323 12.405 16.885 22.649 14.644 12.324-2.641 25.77 1.2 34.813 11.204 9.043 10.084 11.524 23.77 7.602 35.774-3.2 10.004 2.241 20.808 12.325 24.089 10.084 3.2 20.807-2.241 24.089-12.325 7.923-24.57 2.96-52.58-15.606-73.147-14.505-16.069-34.384-24.37-54.407-24.638zM257.653 271.034c84.295.105 152.912 41.147 158.496 98.225 6.323 63.064-66.504 121.885-162.46 131.328-96.035 9.524-178.944-33.932-185.186-96.915-6.243-63.063 66.584-121.804 162.54-131.328a266.4 266.4 0 0 1 26.61-1.31zm-20.52 46.649c-37.856.4-74.957 21.59-91.083 54.298-20.247 41.055-.64 86.67 45.457 101.556 47.858 15.445 104.198-8.243 123.805-52.5 19.367-43.375-4.801-87.95-52.099-100.195-8.568-2.236-17.343-3.252-26.08-3.16zm12.747 53.594c1.52-.027 3.03.223 4.45.783 5.763 2.081 7.844 8.564 4.643 14.406-3.362 5.762-10.805 8.483-16.567 6.082-5.762-2.321-7.522-8.804-4.24-14.406 2.52-4.201 7.156-6.782 11.714-6.865zm-44.033 13.526c4.038.052 8.028.823 11.75 2.383 15.045 6.483 19.847 23.529 10.724 38.494-9.284 14.806-29.21 21.288-44.176 14.485-14.725-6.722-19.127-23.929-9.844-38.414 6.903-10.804 19.433-17.106 31.546-16.948z"/></svg>