<svg xmlns="http://www.w3.org/2000/svg"  fill="#777" viewBox="0 0 600 600"><path d="M229.731 10c-35.067 0-63.653 39.978-63.653 89.634-.001 49.51 28.588 89.61 63.653 89.61 35.141 0 63.676-40.098 63.676-89.61 0-49.656-28.535-89.634-63.676-89.634zm169.713 18.084c-34.21.46-67.766 46.002-71.332 76.782-4.44 42.096 6.244 84.379 53.135 90.22 47.007 6.197 77.443-43.553 83.295-81.214 6.013-37.625-24.162-81.198-60.048-85.521a37.938 37.938 0 0 0-5.05-.267zM88.654 146.491c-.734.009-1.475.028-2.22.057-47.679 1.895-55.303 75.701-55.303 75.701-6.824 34.17 16.89 106.987 80.387 93.549 63.762-13.728 55.095-88.92 53.05-105.51-2.87-23.918-29.6-64.347-75.913-63.797zm407.655 39.674c-55.932 0-63.516 51.116-63.516 87.347 0 34.674 2.841 82.783 72.782 81.407 69.645-1.483 62.034-78.462 62.034-96.587 0-17.947-14.996-72.167-71.3-72.167zm-200.94 59.804c-34.662.345-65.896 22.37-80.813 47.098-27.18 45.034-69.678 73.875-75.89 81.386-6.093 7.403-87.808 51.063-69.604 130.868 18.098 79.8 81.86 78.137 81.86 78.137s47.136 4.663 101.387-7.086c54.757-12.057 101.633 2.631 101.633 2.631s127.318 42.293 162.291-39.002c34.808-81.195-19.924-123.564-19.924-123.564s-72.552-55.598-115.062-115.877c-26.089-40.277-57.16-54.877-85.878-54.59z"/></svg>