<?xml version="1.0" encoding="UTF-8"?>
<svg version="1.1" viewBox="0 0 200 1000" xmlns="http://www.w3.org/2000/svg" xmlns:xlink="http://www.w3.org/1999/xlink" ><defs>
<symbol id="yixin"><path fill="#aaa" d="m125 741c-20.2 20.2-53.1 30.3-89.3 13.9 4.57 5.24 9.95 9.71 15.9 13.7 33.8 22.7 85.2 27.1 120 13.2-9.14-3.65-17.6-7.67-25.3-12.1 25-15.9 40.2-43.5 40.2-73.2 0-47.9-38.8-86.7-86.7-86.7-47.9 0-86.7 38.8-86.7 86.7.034 21.4 8 42.1 22.4 58 22.3 1.04 36.1-8.85 41.7-20.9-12.4-7.75-20.7-21.5-20.7-37.1 0-24 19.4-43.4 43.4-43.4 30.9 0 45.4 23.3 45.7 43.4.22 17.3-4.89 29-20.4 44.5z"/></symbol>
<symbol id="qq"><path fill="#aaa" d="m99.8 410v.002c-25-.402-46.1 19.9-51.7 39.3-4.2 14.4-4.26 22.7-4.52 36.4-6.3 16.1-13.9 34-17.2 48.7-2.8 12.6-2.72 22.8.168 23.1 3.86 1.71 15.3-19.4 15.4-16.8 1.53 15 8.66 24.8 17.9 34.3-4.65 1.73-9.67 3.33-13.7 6.23-2.34 1.74-3.24 4.56-1.89 5.9 16.3 5.47 38.8 1.49 56.1 1.53 14.4.279 29.2 1.67 44 .734 10.3-.756 12.4-1.64 11.8-4.88-.918-3.69-11.6-7.96-16.1-9.51 10.4-10.8 16.6-21 17.9-35.5 4.39 4.77 9.07 17.6 15.4 18.1 2.31 0 2.9-7.65 1.33-17.3-5.48-23.6-10.1-34-18.4-54.6-.303-15.2-1.13-29.1-6.6-42.2-11.2-23.1-28-33.6-50-33.5zm-14.8 22.6c5.46.205 10 7.99 9.89 14.3-.15 5.8-2.96 13.5-9.97 13.8-5.75-.233-9.65-7.08-9.5-13.6-.048-5.96 2.23-14.2 9.58-14.5zm29.7 0c5.46.205 10 7.99 9.89 14.3-.15 5.8-2.96 13.5-9.97 13.8-5.75-.233-9.65-7.08-9.5-13.6-.0484-5.96 2.23-14.2 9.58-14.5zm-26.5 9.52c-2.72.157-4.39 3.1-4.25 5.35-.059 3.1 1.56 6.06 4.39 6.03 2.66.0574 3.87-3.24 4.12-5.63-.0113-2.17-1.33-5.65-4.25-5.74zm26.6 2.34c-.347-.004-.679-.00057-.984.0151-2.85-.0454-7.17 3.31-6.32 5.23 1.6 1.88 2.87-2.19 6.57-2.14 1.9-.31 3.13.837 4.74 1.09 1.25.191 2.08-.553 1.95-1.95-.314-1.65-3.52-2.21-5.95-2.24zm-18.3 20.9c1.46-.0227 2.9-.0113 4.31.0265 10.7.0676 23.1 1.13 33.3 7.19-10.2 9.73-26.1 11-34 10.7-11.9.213-25.8-2.58-34.7-10.8 9.67-5.22 20.8-7.01 31.1-7.16zm46.1 45.7c1.01 8.92 1.88 20 .783 29.4-2.27 26.8-21.4 41-43 41-20.7.117-39.3-17.6-42.2-32.6-2.82-13.8-2.28-24.2-.838-37.7l7.26 1.17.0412 26.2c7.2 1.57 16.7 1.35 24.8.908v-24.2c19.5.585 34.8.301 53.2-4.15z"/></symbol>
<symbol id="weibo"><path fill="#aaa" d="m143 27.1c-3.59-.0534-7.17.296-10.7 1.04-3.73.795-6.09 4.47-5.29 8.17.794 3.73 4.45 6.09 8.17 5.29 11.4-2.43 23.8 1.12 32.2 10.4 8.39 9.31 10.7 22 7.08 33.1-1.17 3.63.819 7.5 4.45 8.67 3.63 1.17 7.5-.819 8.67-4.42v-.0234c5.07-15.6 1.86-33.5-9.96-46.6-9.24-10.2-21.9-15.5-34.7-15.7zm-58.8 20.7c-17.9-.259-39.3 18.8-47.4 26.7-17 17-26.8 35-26.8 50.5 0 29.8 38.2 47.9 75.5 47.9 49 0 81.5-28.4 81.5-51 .0227-13.7-11.5-21.4-21.8-24.6-2.53-.77-4.27-1.27-2.96-4.6 2.88-7.23 3.18-13.5.0488-17.9-5.84-8.35-21.8-7.9-40.2-.223 0 0-5.76 2.51-4.27-2.04 2.81-9.07 2.38-16.6-1.99-21-3.57-2.49-7.52-3.58-11.7-3.64zm58.5 3.74c-1.75-.0238-3.49.15-5.2.518-3.2.67-5.24 3.85-4.57 7.05.695 3.2 3.85 5.24 7.03 4.54 3.82-.82 8 .372 10.8 3.48 2.81 3.13 3.58 7.38 2.36 11.1-.993 3.1.697 6.46 3.83 7.48 3.13.993 6.46-.697 7.47-3.83 2.46-7.63.918-16.3-4.84-22.7-4.5-4.99-10.7-7.56-16.9-7.65zm-55.8 39.4c26.2.034 47.5 12.8 49.2 30.5 1.96 19.6-20.6 37.8-50.4 40.8-29.8 2.96-55.5-10.5-57.5-30.1-1.94-19.6 20.7-37.8 50.4-40.8 2.74-.273 5.5-.409 8.26-.406zm-4.92 14.7c-12.2.0957-25.2 8.1-29.7 16.7-6.28 12.7-.199 26.9 14.1 31.5 14.9 4.79 32.3-2.56 38.4-16.3 6.01-13.5-1.49-27.3-16.2-31.1-2.15-.571-4.38-.824-6.64-.807zm2.5 16.5c2.71.0769 3.74 2.92 2.82 4.71-1.04 1.79-3.35 2.63-5.14 1.89-1.79-.72-2.33-2.73-1.32-4.47.782-1.3 2.22-2.11 3.63-2.13zm-13.7 4.2c7 .147 9.28 8.65 6.97 12.7-2.88 4.59-9.07 6.61-13.7 4.49-4.57-2.09-5.94-7.42-3.05-11.9 2.14-3.35 6.03-5.31 9.79-5.26z"/></symbol>
<symbol id="netease"><path fill="#aaa" d="m96.8 220c-9.61.0355-19.2 1.06-28.3 4.32-9.52 4.28-1.56 16.3 6.84 12.6 15.9-4.84 41.7-4.75 55.1.457 8.06 5.05 7.91 16.1 7.7 24.6.722 9.05-8.34 12.1-15.8 11.1-7.46 1.84-15 1.05-22.5-.0378-9.54-.379-19.3 5.34-28.6 1.34-6.55-4.58-8.18-13.3-6.96-20.8-.0928-6.06 2.35-17-5.46-18.9-8.51.155-8.87 10.1-8.9 16.4.216 8.42-.764 17.1 1.18 25.3 3.68 5.85 7.42 13.4 15.6 13 5.21-.315 18.7-1.5 8.61 5.26-11.2 12.9-33.4 7.63-42.5 13.6-7.06 5.95 2.24 15.3 9.54 12.4 11.2-2.37 26.9-6.44 35.1-12.1 8.55-5.15 15.2-12.8 21.1-20.7 7.47-.908 15.6-.0718 23.3-.758 9.89-.763 22.4.565 29-8.5 5.42-6.26 2.74-15 2.78-22.4-.923-11.3-2.91-24.8-13.9-30.8-6.66-2.11-13.7-3.76-20.7-4.37-7.37-.582-14.9-1.15-22.4-1.12zm.643 27.3c-7 2.12-15.9-1.12-21.6 3.02-5.25 6.5.979 12.7 8.01 10.5 10.4-.0937 20.8-.873 31.2-.65 6.97 2.79 14.7-5.65 7.84-11-8.26-2.02-17-1.76-25.5-1.94zm17 42.6c-3.49.0227-6.67.873-8.87 3.93-1.35 4.51 2.8 9.68-3.89 11.7-12.2 7.81-24.1 16-36.5 23.4-8.68 4.12-17.9 6.98-27.3 8.89-11.2 2.13-6.62 17.6 3.8 15.4 6.79-1.62 13.1-5.05 19.8-7.24 15-6.52 27.4-17.5 40.3-27.2 5.87-4.17 10.8-9.71 16.9-13.5 5.68-3.22 14.6-2.37 15.5 5.4.53 2.88 1.27 5.43 4.67 3.95 5.95-1.68 12.3-.104 14.6 6.24 5.82 9.55-.627 20.6-7.2 27.8-7.28 8.18-18.6 12.7-29.5 11.9-4.74-3.51-17.8-7.44-13.5 3.29 2.88 6.56 6.6 15 14.9 15.3 5 1.11 9.6-1.4 14.3-2.62 12.5-4.78 23.7-13.3 32.1-23.8 5.31-8.61 5.94-19.5 4.38-29.3-2.45-10.7-9.19-20.1-18.7-25.7-6.31-5.11-14.4-6.57-22.3-6.97-4.08.258-9.08-1.07-13.6-1.04zm14.4 28.4c-4.97-.112-10.1 5.34-14 7.96-13.8 11-28.8 20.3-44.2 28.9-7.54 3.21-15.1 6.46-23.3 7.67-8.2.285-11.6 11.4-4.75 16 5.46 2.95 11.8-.0816 17.1-2.15 10.2-3.85 20.2-8.29 29.1-14.6 4.52-5.53 13-4.76 16.8-9.99 2.66-6.44 9.6-10.1 14.5-14.9 4.16-5.17 15.5-9.65 12.8-17.3-1.34-1.09-2.73-1.56-4.12-1.59z"/></symbol>
<symbol id="like"><path fill="#aaa" d="m118 810c-5.4 0-9.6.598-15 3.6-1.8 1.2-2.4 2.41-3 4.21l-6 32.4c-5.87 14.9-19.3 28.2-31.4 38.2-2.02-3.8-5.98-6.42-10.6-6.42h-36c-6.6 0-12 5.4-12 12v84c0 6.6 5.4 12 12 12h36c6.22 0 11.3-4.8 11.9-10.9 2.99.98 6.13 2.48 9.71 4.28 6.6 3 13.2 6.6 20.4 6.6h57c12 0 21-9.6 21-18 0-1.8.002-3-.598-4.2 7.2-3 12.6-9 12.6-16.8 0-3.6-.605-6.6-1.8-9.6 4.8-3 9-8.4 9-14.4 0-3.6-1.8-7.2-3.6-10.2 4.8-3.6 8.4-9.61 8.4-15.6 0-12.6-10.2-19.2-24-19.2h-40.2c3-10.8 4.2-21 4.2-30 0-34.8-9.6-42-18-42zm-7.2 12.6c2.4-.6 4.2-.598 7.2-.598 1.2 0 6 7.2 6 30 0 9-1.8 18.6-4.8 30h-1.2c-3.6 0-6 2.4-6 6s2.4 6 6 6h54l11.4 7.2c0 7.8-7.8 8.4-9 12-1.2 4.2 4.79 5.41 4.79 12.6s-9 7.19-10.2 11.4c-1.2 4.8 3 6.01 3 13.2v1.2c-1.2 6-10.2 6.6-12 9-1.8 3 0 4.2 0 10.8 0 3.6-4.2 6-9 6h-57c-4.8 0-9.6-2.4-15.6-5.4-4.8-2.4-9.6-4.8-14.4-6v-63c15-11.4 34.2-28.2 41.4-49.8zm-94.8 71.4h36v84h-36z"/></symbol>
</defs><use xlink:href="#qq"/><use xlink:href="#weibo"/><use xlink:href="#netease"/><use xlink:href="#yixin"/><use xlink:href="#like"/>
</svg>
