<svg version="1.1" xmlns="http://www.w3.org/2000/symbol">
<symbol id="menu" viewBox="0 0 600 600"><path d="m300 10c-160 0-290 130-290 290s130 290 290 290 290-130 290-290-130-290-290-290zm-60.4 71.3c79.5 0 149 42.3 188 106 1.46 2.95 3.58 5.6 5.8 8.26 20.5 26.2 53.7 35.7 77.5 20.6 25.7-16.3 30.5-54.7 10.8-85.9-1.73-2.74-5.36-7.88-5.37-7.9 39.9 48.4 63.9 110 63.9 178 0 8.06-.361 16-1.03 23.9-12.5 110-106 195-219 195-79.5 0-149-42.3-188-106-1.46-2.95-3.58-5.6-5.8-8.26-20.5-26.2-53.7-35.7-77.5-20.6-25.7 16.3-30.5 54.7-10.8 85.9 1.73 2.75 5.36 7.89 5.36 7.89-39.9-48.4-63.9-110-63.9-178 0-8.1.364-16.1 1.04-24 12.6-110 106-195 219-195zm47.2 98.7c-14.7 0-26.7 11.9-26.7 26.7v53.3h-53.3c-14.7 0-26.7 11.9-26.7 26.7v26.7c0 14.7 11.9 26.7 26.7 26.7h53.3v53.3c0 14.7 11.9 26.7 26.7 26.7h26.7c14.7 0 26.7-11.9 26.7-26.7v-53.3h53.3c14.7 0 26.7-11.9 26.7-26.7v-26.7c0-14.7-11.9-26.7-26.7-26.7h-53.3v-53.3c0-14.7-11.9-26.7-26.7-26.7z" /></symbol>
</svg>
